<?xml version="1.0" standalone="no"?>
<!DOCTYPE svg PUBLIC "-//W3C//DTD SVG 20010904//EN"
 "http://www.w3.org/TR/2001/REC-SVG-20010904/DTD/svg10.dtd">
<svg version="1.0" xmlns="http://www.w3.org/2000/svg"
 width="452.000000pt" height="452.000000pt" viewBox="0 0 452.000000 452.000000"
 preserveAspectRatio="xMidYMid meet">
<metadata>
Created by potrace 1.11, written by Peter Selinger 2001-2013
</metadata>
<g transform="translate(0.000000,452.000000) scale(0.100000,-0.100000)"
fill="#000000" stroke="none">
<path d="M0 2260 l0 -2260 2260 0 2260 0 0 2260 0 2260 -2260 0 -2260 0 0
-2260z m1853 2035 c417 -44 945 -208 1463 -453 489 -232 723 -403 906 -662
295 -417 315 -791 64 -1183 -176 -275 -541 -574 -1071 -878 -229 -131 -828
-421 -1007 -488 -232 -86 -488 -150 -753 -187 -144 -20 -296 -14 -443 16 -499
101 -791 437 -904 1040 -19 99 -22 150 -22 370 0 281 12 399 65 645 60 279
143 520 268 780 127 263 266 462 460 656 133 133 190 175 337 251 198 101 351
124 637 93z"/>
<path d="M675 3385 c-29 -28 -32 -70 -8 -105 9 -14 183 -244 385 -512 269
-355 376 -490 394 -494 13 -3 37 -1 52 5 17 8 105 112 237 282 l210 271 5
-526 5 -525 23 -23 c21 -21 31 -23 138 -23 115 0 116 0 140 28 l24 29 -2 788
c-3 742 -4 790 -21 807 -15 15 -39 19 -138 21 -67 2 -131 1 -144 -2 -15 -4
-99 -109 -259 -326 -130 -176 -241 -322 -245 -325 -5 -2 -117 139 -250 315
-133 176 -250 324 -261 330 -10 5 -73 10 -140 10 -115 0 -122 -1 -145 -25z"/>
<path d="M2676 3389 c-25 -20 -26 -23 -26 -138 0 -175 -43 -159 450 -163 372
-3 408 -5 443 -22 63 -31 82 -68 82 -158 0 -74 -1 -78 -35 -113 -60 -62 -85
-65 -510 -65 -465 0 -430 12 -430 -150 0 -60 3 -116 6 -125 17 -43 42 -45 472
-45 447 0 467 -2 525 -58 86 -82 75 -209 -23 -266 -34 -20 -54 -21 -480 -26
-457 -5 -479 -7 -494 -46 -3 -8 -6 -67 -6 -129 0 -171 -46 -157 500 -153 425
4 448 5 518 26 169 51 269 127 329 249 35 70 38 84 41 180 4 86 1 115 -17 171
-26 80 -83 165 -137 207 l-40 31 43 62 c55 81 77 154 77 262 0 194 -93 345
-261 426 -120 58 -176 64 -613 64 -377 0 -388 -1 -414 -21z"/>
<path d="M672 2287 c-21 -23 -22 -31 -22 -265 0 -231 1 -242 21 -260 25 -24
62 -32 151 -32 83 0 134 19 148 55 6 15 10 123 10 241 0 224 -6 263 -45 278
-9 3 -67 6 -129 6 -105 0 -114 -2 -134 -23z"/>
</g>
</svg>
